<svg xmlns="http://www.w3.org/2000/svg" version="1.1" xmlns:xlink="http://www.w3.org/1999/xlink" xmlns:svgjs="http://svgjs.dev/svgjs" viewBox="0 0 1920 1080"><rect width="1920" height="1080" fill="#1e2e5c"></rect><g transform="matrix(0.5750000000000001,0.9959292143521044,-0.9959292143521044,0.5750000000000001,930.539622124648,-690.8272818496587)"><path d="M0,-1080C-8.843062776782686,-986.0836120993413,-65.02640467980402,-742.6520821961303,-53.05837666069612,-516.5016725960475C-41.090348641588214,-290.3512629959646,56.786941503135544,37.822914012691285,71.80816811464743,276.9024576004971C86.82939472615931,515.9820011883029,60.93916389808881,698.2209914900077,37.06898300837517,917.9755889307874C13.198802118661533,1137.730186371567,-65.2347533889052,1388.4259737336395,-71.4129172236344,1595.430042245175C-77.59108105836359,1802.4341107567104,-11.902152870605732,2065.9050070408625,0,2160L 1920 2160 L 1920 -1080 Z" fill="url(&quot;#SvgjsLinearGradient1137&quot;)"></path><path d="M192,-1080C180.23203553376567,-1005.2396664115333,136.85303269285754,-776.5429022261794,121.39221320259402,-631.4379984692001C105.93139371233052,-486.3330947122208,77.16524075499817,-375.8594996941109,99.23508305841897,-209.37057745812393C121.30492536183976,-42.88165522213694,243.13847145380657,191.99766137221556,253.8112670231188,367.4955349467218C264.48406259243103,542.993408521228,185.61848958761212,712.7782165495103,163.2718564742924,843.6166639889137C140.9252233609727,974.4551114283172,103.36723497717985,1019.1767222701094,119.73146834320056,1152.5262195831424C136.09570170922126,1285.8757168961754,249.41250139428342,1475.8013511309684,261.45725667041665,1643.7136478671114C273.5020119465499,1811.6259446032543,203.57620944506945,2073.9522746445186,192,2160L 1920 2160 L 1920 -1080 Z" fill="url(&quot;#SvgjsLinearGradient1138&quot;)"></path><path d="M384,-1080C396.54235574448325,-1007.1823509123902,472.9063667611544,-835.6328296813217,459.2541344668995,-643.0941054743412C445.60190217264454,-450.55538126736064,300.0114194761036,-119.27545755079404,302.08660623447037,75.23234524188297C304.16179299283715,269.74014803456,469.13666704890574,369.7831153134322,471.7052550171001,523.9527112817208C474.2738429852945,678.1223072500094,314.75042419005655,801.3305676148901,317.4981340436367,1000.2499210516145C320.24584389721684,1199.169274488339,477.1078698125204,1524.177152077336,488.19151413858094,1717.4688319020668C499.2751584646415,1910.7605117267976,401.3652523564302,2086.244805317011,384,2160L 1920 2160 L 1920 -1080 Z" fill="url(&quot;#SvgjsLinearGradient1139&quot;)"></path><path d="M576,-1080C583.6392194639061,-996.707083657726,623.1437613536189,-737.1176423404678,621.835316783437,-580.2425019463559C620.526872213255,-423.367361552244,591.2599176534245,-294.4508240594686,568.1493325789086,-138.7491576353289C545.0387475043926,16.952508788810746,477.6866221486832,187.21077494586325,483.17180633634166,353.96749659848206C488.6569905240001,520.7242182511009,571.5637241353498,712.2833621426428,601.0604377048592,861.791172280384C630.5571512743685,1011.2989824181252,669.1027822390641,1122.6271170291673,660.1520877533978,1251.0143574249291C651.2013932677315,1379.401597820691,561.381618749761,1480.61700755911,547.3562707908613,1632.1146146549552C533.3309228319617,1783.6122217508002,571.2260451318102,2072.0191024424926,576,2160L 1920 2160 L 1920 -1080 Z" fill="url(&quot;#SvgjsLinearGradient1140&quot;)"></path><path d="M768,-1080C762.1011256394204,-1002.062245057761,728.0960944583073,-783.7584024932436,732.606753836522,-612.3734703465657C737.1174132147366,-440.9885381998878,784.4243575154167,-229.96188280599134,795.0639562692882,-51.69040711993265C805.7035550231597,126.58106856612605,812.7805879521313,282.30531566069044,796.4443463597513,457.2553837697865C780.1081047673713,632.2054518788825,714.1602259637814,791.3704639277302,697.0465067150078,998.0100015346436C679.9327874662342,1204.6495391415572,681.9364486529441,1503.4276096670415,693.7620308671095,1697.0926094112674C705.5876130812749,1890.7576091554934,755.6270051445183,2082.848768235211,768,2160L 1920 2160 L 1920 -1080 Z" fill="url(&quot;#SvgjsLinearGradient1141&quot;)"></path><path d="M960,-1080C970.0084370838623,-998.5279238063229,1014.6631809561271,-788.3475661562671,1020.0506225031736,-591.1675428379375C1025.43806405022,-393.9875195196079,992.6930297494719,-68.28739876022476,992.3246492822789,103.08013990997773C991.9562688150859,274.4476785801802,1006.7872700356332,258.91930239945486,1017.8403397000156,437.03768918327745C1028.8934093643982,615.1560759671,1061.2741482570077,961.4320319700524,1058.6430672685735,1171.7904606129134C1056.0119862801394,1382.1488892557745,1018.494364980839,1534.4866711425957,1002.0538537694101,1699.1882610404434C985.6133425579812,1863.8898509382911,967.008975628235,2083.1980435067408,960,2160L 1920 2160 L 1920 -1080 Z" fill="url(&quot;#SvgjsLinearGradient1142&quot;)"></path><path d="M1152,-1080C1149.4076799522916,-961.6204335519732,1133.510269192923,-629.5740308861648,1136.446079713749,-369.72260131183907C1139.381890234575,-109.87117173751341,1161.034609348027,181.5293508760871,1169.6148631249553,479.1085774459541C1178.1951169018835,776.687804015821,1190.8634128961444,1135.6041876816885,1187.9276023753184,1415.7527581073628C1184.9917918544925,1695.901328533037,1157.9879337292198,2035.9587930178939,1152,2160L 1920 2160 L 1920 -1080 Z" fill="url(&quot;#SvgjsLinearGradient1143&quot;)"></path><path d="M1344,-1080C1354.1390264238912,-1027.5584999263308,1402.8411937926344,-896.8521367183473,1404.8341585433475,-765.3509995579852C1406.8271232940606,-633.8498623976232,1377.617781909023,-441.8559463921945,1355.9577885042784,-290.9931770378272C1334.2977950995337,-140.13040768345994,1287.896925117755,7.805176962349179,1274.8741981148798,139.8256165682182C1261.8514711120047,271.84605617408727,1281.640186813098,356.049990847976,1277.8214264870276,501.1294605973869C1274.0026661609572,646.2089303467978,1256.3922815030096,878.73588590041,1251.9616361584585,1010.3024350646834C1247.5309908139075,1141.8689842289568,1245.8657218317037,1151.6584380237173,1251.2375544197216,1290.5287555830273C1256.6093870077395,1429.3990731423373,1268.7322240898527,1698.6124663510486,1284.1926316865658,1843.5243404205441C1299.653039283279,1988.4362144900397,1334.0321052810943,2107.2540567367573,1344,2160L 1920 2160 L 1920 -1080 Z" fill="url(&quot;#SvgjsLinearGradient1144&quot;)"></path><path d="M1536,-1080C1532.2905900448925,-997.7405319509606,1513.5111851954416,-735.4619713783916,1513.743540269355,-586.443191705764C1513.9758953432683,-437.4244120331364,1517.7579842188643,-316.646367297869,1537.394130443481,-185.88732196423413C1557.0302766680975,-55.12827663059923,1636.3224517006015,63.18803344404421,1631.5604176170539,198.1110802960454C1626.7983835335062,333.0341271480466,1541.0097120203475,492.5694327916234,1508.8219259421946,623.650959147773C1476.6341398640418,754.7324855039227,1447.6159280634763,861.2858159117332,1438.4337011481366,984.6002384329435C1429.251474232797,1107.9146609541538,1423.451992159155,1218.4213992790628,1453.7285644501567,1363.5374942750352C1484.0051367411584,1508.6535892710076,1606.3812289691725,1722.553057454617,1620.0931348941465,1855.2968084087777C1633.8050408191204,1988.0405593629384,1550.0155224823577,2109.2161347347965,1536,2160L 1920 2160 L 1920 -1080 Z" fill="url(&quot;#SvgjsLinearGradient1145&quot;)"></path><path d="M1728,-1080C1714.074695664306,-982.9062169512919,1647.458217762698,-730.2609958020762,1644.448173985836,-497.4373017077513C1641.4381302089741,-264.61360761342644,1688.142449675818,102.76751742592185,1709.939737338829,316.94216456594893C1731.73702500184,531.116811705976,1785.1079434350972,572.4648279114505,1775.2318999639028,787.6105811324111C1765.3558564927084,1002.7563343533717,1658.5554598389801,1379.0851140804477,1650.683476511663,1607.8166838917125C1642.8114931843459,1836.5482537029773,1715.1139127519439,2067.9694473152854,1728,2160L 1920 2160 L 1920 -1080 Z" fill="url(&quot;#SvgjsLinearGradient1146&quot;)"></path></g><defs><linearGradient x1="0.1" y1="0" x2="0" y2="1" id="SvgjsLinearGradient1137"><stop stop-color="#1e2e5c" offset="0"></stop><stop stop-color="#1e385c" offset="0"></stop></linearGradient><linearGradient x1="0.1" y1="0" x2="0" y2="1" id="SvgjsLinearGradient1138"><stop stop-color="#1c2a55" offset="0"></stop><stop stop-color="#1c3355" offset="0.1"></stop></linearGradient><linearGradient x1="0.1" y1="0" x2="0" y2="1" id="SvgjsLinearGradient1139"><stop stop-color="#19274e" offset="0"></stop><stop stop-color="#19304e" offset="0.2"></stop></linearGradient><linearGradient x1="0.1" y1="0" x2="0" y2="1" id="SvgjsLinearGradient1140"><stop stop-color="#172347" offset="0"></stop><stop stop-color="#172b47" offset="0.3"></stop></linearGradient><linearGradient x1="0.1" y1="0" x2="0" y2="1" id="SvgjsLinearGradient1141"><stop stop-color="#152040" offset="0"></stop><stop stop-color="#152740" offset="0.4"></stop></linearGradient><linearGradient x1="0.1" y1="0" x2="0" y2="1" id="SvgjsLinearGradient1142"><stop stop-color="#131c39" offset="0"></stop><stop stop-color="#132239" offset="0.5"></stop></linearGradient><linearGradient x1="0.1" y1="0" x2="0" y2="1" id="SvgjsLinearGradient1143"><stop stop-color="#101932" offset="0"></stop><stop stop-color="#101f32" offset="0.6"></stop></linearGradient><linearGradient x1="0.1" y1="0" x2="0" y2="1" id="SvgjsLinearGradient1144"><stop stop-color="#0e152b" offset="0"></stop><stop stop-color="#0e1a2b" offset="0.7"></stop></linearGradient><linearGradient x1="0.1" y1="0" x2="0" y2="1" id="SvgjsLinearGradient1145"><stop stop-color="#0c1224" offset="0"></stop><stop stop-color="#0c1624" offset="0.8"></stop></linearGradient><linearGradient x1="0.1" y1="0" x2="0" y2="1" id="SvgjsLinearGradient1146"><stop stop-color="#090e1d" offset="0"></stop><stop stop-color="#09111d" offset="0.9"></stop></linearGradient></defs></svg>